solid ascii
  facet normal 1.000000e+000 -0.000000e+000 0.000000e+000
    outer loop
      vertex   -1.120000e+002 9.181240e+001 1.500000e+001
      vertex   -1.120000e+002 9.181240e+001 1.400000e+001
      vertex   -1.120000e+002 9.500000e+001 1.500000e+001
    endloop
  endfacet
  facet normal 1.000000e+000 0.000000e+000 0.000000e+000
    outer loop
      vertex   -1.120000e+002 9.500000e+001 1.500000e+001
      vertex   -1.120000e+002 9.181240e+001 1.400000e+001
      vertex   -1.120000e+002 9.500000e+001 0.000000e+000
    endloop
  endfacet
  facet normal 1.000000e+000 0.000000e+000 0.000000e+000
    outer loop
      vertex   -1.120000e+002 9.500000e+001 0.000000e+000
      vertex   -1.120000e+002 9.181240e+001 1.400000e+001
      vertex   -1.120000e+002 8.500000e+001 0.000000e+000
    endloop
  endfacet
  facet normal 1.000000e+000 0.000000e+000 -0.000000e+000
    outer loop
      vertex   -1.120000e+002 8.500000e+001 0.000000e+000
      vertex   -1.120000e+002 9.181240e+001 1.400000e+001
      vertex   -1.120000e+002 8.500000e+001 1.400000e+001
    endloop
  endfacet
  facet normal 0.000000e+000 -1.000000e+000 0.000000e+000
    outer loop
      vertex   -1.200000e+002 8.500000e+001 1.400000e+001
      vertex   -1.200000e+002 8.500000e+001 0.000000e+000
      vertex   -1.120000e+002 8.500000e+001 1.400000e+001
    endloop
  endfacet
  facet normal 0.000000e+000 -1.000000e+000 -0.000000e+000
    outer loop
      vertex   -1.120000e+002 8.500000e+001 1.400000e+001
      vertex   -1.200000e+002 8.500000e+001 0.000000e+000
      vertex   -1.120000e+002 8.500000e+001 0.000000e+000
    endloop
  endfacet
  facet normal 0.000000e+000 -0.000000e+000 1.000000e+000
    outer loop
      vertex   -1.200000e+002 9.181240e+001 1.500000e+001
      vertex   -1.120000e+002 9.181240e+001 1.500000e+001
      vertex   -1.200000e+002 9.500000e+001 1.500000e+001
    endloop
  endfacet
  facet normal -0.000000e+000 0.000000e+000 1.000000e+000
    outer loop
      vertex   -1.200000e+002 9.500000e+001 1.500000e+001
      vertex   -1.120000e+002 9.181240e+001 1.500000e+001
      vertex   -1.120000e+002 9.500000e+001 1.500000e+001
    endloop
  endfacet
  facet normal 0.000000e+000 0.000000e+000 -1.000000e+000
    outer loop
      vertex   -1.120000e+002 8.500000e+001 0.000000e+000
      vertex   -1.200000e+002 8.500000e+001 0.000000e+000
      vertex   -1.120000e+002 9.500000e+001 0.000000e+000
    endloop
  endfacet
  facet normal -0.000000e+000 0.000000e+000 -1.000000e+000
    outer loop
      vertex   -1.120000e+002 9.500000e+001 0.000000e+000
      vertex   -1.200000e+002 8.500000e+001 0.000000e+000
      vertex   -1.200000e+002 9.500000e+001 0.000000e+000
    endloop
  endfacet
  facet normal -1.000000e+000 0.000000e+000 -0.000000e+000
    outer loop
      vertex   -1.200000e+002 9.181240e+001 1.500000e+001
      vertex   -1.200000e+002 9.500000e+001 1.500000e+001
      vertex   -1.200000e+002 9.181240e+001 1.400000e+001
    endloop
  endfacet
  facet normal -1.000000e+000 0.000000e+000 0.000000e+000
    outer loop
      vertex   -1.200000e+002 9.181240e+001 1.400000e+001
      vertex   -1.200000e+002 9.500000e+001 1.500000e+001
      vertex   -1.200000e+002 9.500000e+001 0.000000e+000
    endloop
  endfacet
  facet normal -1.000000e+000 0.000000e+000 0.000000e+000
    outer loop
      vertex   -1.200000e+002 8.500000e+001 0.000000e+000
      vertex   -1.200000e+002 9.181240e+001 1.400000e+001
      vertex   -1.200000e+002 9.500000e+001 0.000000e+000
    endloop
  endfacet
  facet normal -1.000000e+000 0.000000e+000 0.000000e+000
    outer loop
      vertex   -1.200000e+002 8.500000e+001 0.000000e+000
      vertex   -1.200000e+002 8.500000e+001 1.400000e+001
      vertex   -1.200000e+002 9.181240e+001 1.400000e+001
    endloop
  endfacet
  facet normal 0.000000e+000 1.000000e+000 0.000000e+000
    outer loop
      vertex   -1.120000e+002 9.500000e+001 1.500000e+001
      vertex   -1.120000e+002 9.500000e+001 0.000000e+000
      vertex   -1.200000e+002 9.500000e+001 1.500000e+001
    endloop
  endfacet
  facet normal 0.000000e+000 1.000000e+000 0.000000e+000
    outer loop
      vertex   -1.200000e+002 9.500000e+001 1.500000e+001
      vertex   -1.120000e+002 9.500000e+001 0.000000e+000
      vertex   -1.200000e+002 9.500000e+001 0.000000e+000
    endloop
  endfacet
  facet normal -0.000000e+000 1.000000e+000 0.000000e+000
    outer loop
      vertex   -1.120000e+002 9.181240e+001 1.400000e+001
      vertex   -1.120000e+002 9.181240e+001 1.500000e+001
      vertex   -1.099500e+002 9.181240e+001 1.400000e+001
    endloop
  endfacet
  facet normal 0.000000e+000 1.000000e+000 -0.000000e+000
    outer loop
      vertex   -1.099500e+002 9.181240e+001 1.400000e+001
      vertex   -1.120000e+002 9.181240e+001 1.500000e+001
      vertex   -1.099500e+002 9.181240e+001 1.500000e+001
    endloop
  endfacet
  facet normal 0.000000e+000 1.000000e+000 0.000000e+000
    outer loop
      vertex   -1.099500e+002 9.181240e+001 1.500000e+001
      vertex   -1.120000e+002 9.181240e+001 1.500000e+001
      vertex   -1.208926e+002 9.181240e+001 3.400000e+001
    endloop
  endfacet
  facet normal 0.000000e+000 1.000000e+000 0.000000e+000
    outer loop
      vertex   -1.008926e+002 9.181240e+001 3.400000e+001
      vertex   -1.099500e+002 9.181240e+001 1.500000e+001
      vertex   -1.208926e+002 9.181240e+001 3.400000e+001
    endloop
  endfacet
  facet normal 0.000000e+000 1.000000e+000 0.000000e+000
    outer loop
      vertex   -1.008926e+002 9.181240e+001 3.400000e+001
      vertex   -1.019500e+002 9.181240e+001 1.500000e+001
      vertex   -1.099500e+002 9.181240e+001 1.500000e+001
    endloop
  endfacet
  facet normal 0.000000e+000 1.000000e+000 0.000000e+000
    outer loop
      vertex   -1.008926e+002 9.181240e+001 3.400000e+001
      vertex   -1.008926e+002 9.181240e+001 1.400000e+001
      vertex   -1.019500e+002 9.181240e+001 1.500000e+001
    endloop
  endfacet
  facet normal 0.000000e+000 1.000000e+000 0.000000e+000
    outer loop
      vertex   -1.019500e+002 9.181240e+001 1.500000e+001
      vertex   -1.008926e+002 9.181240e+001 1.400000e+001
      vertex   -1.019500e+002 9.181240e+001 1.400000e+001
    endloop
  endfacet
  facet normal 0.000000e+000 1.000000e+000 0.000000e+000
    outer loop
      vertex   -1.120000e+002 9.181240e+001 1.500000e+001
      vertex   -1.200000e+002 9.181240e+001 1.500000e+001
      vertex   -1.208926e+002 9.181240e+001 3.400000e+001
    endloop
  endfacet
  facet normal 0.000000e+000 1.000000e+000 0.000000e+000
    outer loop
      vertex   -1.208926e+002 9.181240e+001 3.400000e+001
      vertex   -1.200000e+002 9.181240e+001 1.500000e+001
      vertex   -1.208926e+002 9.181240e+001 1.400000e+001
    endloop
  endfacet
  facet normal -0.000000e+000 1.000000e+000 0.000000e+000
    outer loop
      vertex   -1.208926e+002 9.181240e+001 1.400000e+001
      vertex   -1.200000e+002 9.181240e+001 1.500000e+001
      vertex   -1.200000e+002 9.181240e+001 1.400000e+001
    endloop
  endfacet
  facet normal 1.000000e+000 -0.000000e+000 0.000000e+000
    outer loop
      vertex   -1.019500e+002 9.181240e+001 1.500000e+001
      vertex   -1.019500e+002 9.181240e+001 1.400000e+001
      vertex   -1.019500e+002 9.500000e+001 1.500000e+001
    endloop
  endfacet
  facet normal 1.000000e+000 0.000000e+000 0.000000e+000
    outer loop
      vertex   -1.019500e+002 9.500000e+001 1.500000e+001
      vertex   -1.019500e+002 9.181240e+001 1.400000e+001
      vertex   -1.019500e+002 9.500000e+001 0.000000e+000
    endloop
  endfacet
  facet normal 1.000000e+000 0.000000e+000 0.000000e+000
    outer loop
      vertex   -1.019500e+002 9.500000e+001 0.000000e+000
      vertex   -1.019500e+002 9.181240e+001 1.400000e+001
      vertex   -1.019500e+002 8.500000e+001 0.000000e+000
    endloop
  endfacet
  facet normal 1.000000e+000 0.000000e+000 -0.000000e+000
    outer loop
      vertex   -1.019500e+002 8.500000e+001 0.000000e+000
      vertex   -1.019500e+002 9.181240e+001 1.400000e+001
      vertex   -1.019500e+002 8.500000e+001 1.400000e+001
    endloop
  endfacet
  facet normal 0.000000e+000 -1.000000e+000 0.000000e+000
    outer loop
      vertex   -1.099500e+002 8.500000e+001 1.400000e+001
      vertex   -1.099500e+002 8.500000e+001 0.000000e+000
      vertex   -1.019500e+002 8.500000e+001 1.400000e+001
    endloop
  endfacet
  facet normal 0.000000e+000 -1.000000e+000 -0.000000e+000
    outer loop
      vertex   -1.019500e+002 8.500000e+001 1.400000e+001
      vertex   -1.099500e+002 8.500000e+001 0.000000e+000
      vertex   -1.019500e+002 8.500000e+001 0.000000e+000
    endloop
  endfacet
  facet normal 0.000000e+000 -0.000000e+000 1.000000e+000
    outer loop
      vertex   -1.099500e+002 9.181240e+001 1.500000e+001
      vertex   -1.019500e+002 9.181240e+001 1.500000e+001
      vertex   -1.099500e+002 9.500000e+001 1.500000e+001
    endloop
  endfacet
  facet normal -0.000000e+000 0.000000e+000 1.000000e+000
    outer loop
      vertex   -1.099500e+002 9.500000e+001 1.500000e+001
      vertex   -1.019500e+002 9.181240e+001 1.500000e+001
      vertex   -1.019500e+002 9.500000e+001 1.500000e+001
    endloop
  endfacet
  facet normal 0.000000e+000 0.000000e+000 -1.000000e+000
    outer loop
      vertex   -1.019500e+002 8.500000e+001 0.000000e+000
      vertex   -1.099500e+002 8.500000e+001 0.000000e+000
      vertex   -1.019500e+002 9.500000e+001 0.000000e+000
    endloop
  endfacet
  facet normal -0.000000e+000 0.000000e+000 -1.000000e+000
    outer loop
      vertex   -1.019500e+002 9.500000e+001 0.000000e+000
      vertex   -1.099500e+002 8.500000e+001 0.000000e+000
      vertex   -1.099500e+002 9.500000e+001 0.000000e+000
    endloop
  endfacet
  facet normal -1.000000e+000 0.000000e+000 -0.000000e+000
    outer loop
      vertex   -1.099500e+002 9.181240e+001 1.500000e+001
      vertex   -1.099500e+002 9.500000e+001 1.500000e+001
      vertex   -1.099500e+002 9.181240e+001 1.400000e+001
    endloop
  endfacet
  facet normal -1.000000e+000 0.000000e+000 0.000000e+000
    outer loop
      vertex   -1.099500e+002 9.181240e+001 1.400000e+001
      vertex   -1.099500e+002 9.500000e+001 1.500000e+001
      vertex   -1.099500e+002 9.500000e+001 0.000000e+000
    endloop
  endfacet
  facet normal -1.000000e+000 0.000000e+000 0.000000e+000
    outer loop
      vertex   -1.099500e+002 8.500000e+001 0.000000e+000
      vertex   -1.099500e+002 9.181240e+001 1.400000e+001
      vertex   -1.099500e+002 9.500000e+001 0.000000e+000
    endloop
  endfacet
  facet normal -1.000000e+000 0.000000e+000 0.000000e+000
    outer loop
      vertex   -1.099500e+002 8.500000e+001 0.000000e+000
      vertex   -1.099500e+002 8.500000e+001 1.400000e+001
      vertex   -1.099500e+002 9.181240e+001 1.400000e+001
    endloop
  endfacet
  facet normal 0.000000e+000 1.000000e+000 0.000000e+000
    outer loop
      vertex   -1.019500e+002 9.500000e+001 1.500000e+001
      vertex   -1.019500e+002 9.500000e+001 0.000000e+000
      vertex   -1.099500e+002 9.500000e+001 1.500000e+001
    endloop
  endfacet
  facet normal 0.000000e+000 1.000000e+000 0.000000e+000
    outer loop
      vertex   -1.099500e+002 9.500000e+001 1.500000e+001
      vertex   -1.019500e+002 9.500000e+001 0.000000e+000
      vertex   -1.099500e+002 9.500000e+001 0.000000e+000
    endloop
  endfacet
  facet normal 1.000000e+000 -0.000000e+000 0.000000e+000
    outer loop
      vertex   -1.019500e+002 5.500000e+001 1.400000e+001
      vertex   -1.019500e+002 5.500000e+001 0.000000e+000
      vertex   -1.019500e+002 6.500000e+001 1.400000e+001
    endloop
  endfacet
  facet normal 1.000000e+000 -0.000000e+000 0.000000e+000
    outer loop
      vertex   -1.019500e+002 6.500000e+001 1.400000e+001
      vertex   -1.019500e+002 5.500000e+001 0.000000e+000
      vertex   -1.019500e+002 6.500000e+001 0.000000e+000
    endloop
  endfacet
  facet normal 0.000000e+000 -1.000000e+000 0.000000e+000
    outer loop
      vertex   -1.099500e+002 5.500000e+001 1.400000e+001
      vertex   -1.099500e+002 5.500000e+001 0.000000e+000
      vertex   -1.019500e+002 5.500000e+001 1.400000e+001
    endloop
  endfacet
  facet normal 0.000000e+000 -1.000000e+000 -0.000000e+000
    outer loop
      vertex   -1.019500e+002 5.500000e+001 1.400000e+001
      vertex   -1.099500e+002 5.500000e+001 0.000000e+000
      vertex   -1.019500e+002 5.500000e+001 0.000000e+000
    endloop
  endfacet
  facet normal 0.000000e+000 0.000000e+000 -1.000000e+000
    outer loop
      vertex   -1.019500e+002 5.500000e+001 0.000000e+000
      vertex   -1.099500e+002 5.500000e+001 0.000000e+000
      vertex   -1.019500e+002 6.500000e+001 0.000000e+000
    endloop
  endfacet
  facet normal -0.000000e+000 0.000000e+000 -1.000000e+000
    outer loop
      vertex   -1.019500e+002 6.500000e+001 0.000000e+000
      vertex   -1.099500e+002 5.500000e+001 0.000000e+000
      vertex   -1.099500e+002 6.500000e+001 0.000000e+000
    endloop
  endfacet
  facet normal -1.000000e+000 -0.000000e+000 -0.000000e+000
    outer loop
      vertex   -1.099500e+002 6.500000e+001 1.400000e+001
      vertex   -1.099500e+002 6.500000e+001 0.000000e+000
      vertex   -1.099500e+002 5.500000e+001 1.400000e+001
    endloop
  endfacet
  facet normal -1.000000e+000 -0.000000e+000 -0.000000e+000
    outer loop
      vertex   -1.099500e+002 5.500000e+001 1.400000e+001
      vertex   -1.099500e+002 6.500000e+001 0.000000e+000
      vertex   -1.099500e+002 5.500000e+001 0.000000e+000
    endloop
  endfacet
  facet normal 0.000000e+000 1.000000e+000 0.000000e+000
    outer loop
      vertex   -1.019500e+002 6.500000e+001 1.400000e+001
      vertex   -1.019500e+002 6.500000e+001 0.000000e+000
      vertex   -1.099500e+002 6.500000e+001 1.400000e+001
    endloop
  endfacet
  facet normal 0.000000e+000 1.000000e+000 0.000000e+000
    outer loop
      vertex   -1.099500e+002 6.500000e+001 1.400000e+001
      vertex   -1.019500e+002 6.500000e+001 0.000000e+000
      vertex   -1.099500e+002 6.500000e+001 0.000000e+000
    endloop
  endfacet
  facet normal 1.000000e+000 -0.000000e+000 0.000000e+000
    outer loop
      vertex   -1.120000e+002 5.500000e+001 1.400000e+001
      vertex   -1.120000e+002 5.500000e+001 0.000000e+000
      vertex   -1.120000e+002 6.500000e+001 1.400000e+001
    endloop
  endfacet
  facet normal 1.000000e+000 -0.000000e+000 0.000000e+000
    outer loop
      vertex   -1.120000e+002 6.500000e+001 1.400000e+001
      vertex   -1.120000e+002 5.500000e+001 0.000000e+000
      vertex   -1.120000e+002 6.500000e+001 0.000000e+000
    endloop
  endfacet
  facet normal 0.000000e+000 -1.000000e+000 0.000000e+000
    outer loop
      vertex   -1.200000e+002 5.500000e+001 1.400000e+001
      vertex   -1.200000e+002 5.500000e+001 0.000000e+000
      vertex   -1.120000e+002 5.500000e+001 1.400000e+001
    endloop
  endfacet
  facet normal 0.000000e+000 -1.000000e+000 -0.000000e+000
    outer loop
      vertex   -1.120000e+002 5.500000e+001 1.400000e+001
      vertex   -1.200000e+002 5.500000e+001 0.000000e+000
      vertex   -1.120000e+002 5.500000e+001 0.000000e+000
    endloop
  endfacet
  facet normal 0.000000e+000 0.000000e+000 -1.000000e+000
    outer loop
      vertex   -1.120000e+002 5.500000e+001 0.000000e+000
      vertex   -1.200000e+002 5.500000e+001 0.000000e+000
      vertex   -1.120000e+002 6.500000e+001 0.000000e+000
    endloop
  endfacet
  facet normal -0.000000e+000 0.000000e+000 -1.000000e+000
    outer loop
      vertex   -1.120000e+002 6.500000e+001 0.000000e+000
      vertex   -1.200000e+002 5.500000e+001 0.000000e+000
      vertex   -1.200000e+002 6.500000e+001 0.000000e+000
    endloop
  endfacet
  facet normal -1.000000e+000 -0.000000e+000 -0.000000e+000
    outer loop
      vertex   -1.200000e+002 6.500000e+001 1.400000e+001
      vertex   -1.200000e+002 6.500000e+001 0.000000e+000
      vertex   -1.200000e+002 5.500000e+001 1.400000e+001
    endloop
  endfacet
  facet normal -1.000000e+000 -0.000000e+000 -0.000000e+000
    outer loop
      vertex   -1.200000e+002 5.500000e+001 1.400000e+001
      vertex   -1.200000e+002 6.500000e+001 0.000000e+000
      vertex   -1.200000e+002 5.500000e+001 0.000000e+000
    endloop
  endfacet
  facet normal 0.000000e+000 1.000000e+000 0.000000e+000
    outer loop
      vertex   -1.120000e+002 6.500000e+001 1.400000e+001
      vertex   -1.120000e+002 6.500000e+001 0.000000e+000
      vertex   -1.200000e+002 6.500000e+001 1.400000e+001
    endloop
  endfacet
  facet normal 0.000000e+000 1.000000e+000 0.000000e+000
    outer loop
      vertex   -1.200000e+002 6.500000e+001 1.400000e+001
      vertex   -1.120000e+002 6.500000e+001 0.000000e+000
      vertex   -1.200000e+002 6.500000e+001 0.000000e+000
    endloop
  endfacet
  facet normal 0.000000e+000 -1.000000e+000 0.000000e+000
    outer loop
      vertex   -1.208926e+002 5.281240e+001 2.050000e+001
      vertex   -1.208926e+002 5.281240e+001 1.400000e+001
      vertex   -1.008926e+002 5.281240e+001 2.050000e+001
    endloop
  endfacet
  facet normal 0.000000e+000 -1.000000e+000 -0.000000e+000
    outer loop
      vertex   -1.008926e+002 5.281240e+001 2.050000e+001
      vertex   -1.208926e+002 5.281240e+001 1.400000e+001
      vertex   -1.008926e+002 5.281240e+001 1.400000e+001
    endloop
  endfacet
  facet normal 0.000000e+000 -0.000000e+000 1.000000e+000
    outer loop
      vertex   -1.208926e+002 6.181240e+001 3.400000e+001
      vertex   -1.008926e+002 6.181240e+001 3.400000e+001
      vertex   -1.208926e+002 9.181240e+001 3.400000e+001
    endloop
  endfacet
  facet normal -0.000000e+000 0.000000e+000 1.000000e+000
    outer loop
      vertex   -1.208926e+002 9.181240e+001 3.400000e+001
      vertex   -1.008926e+002 6.181240e+001 3.400000e+001
      vertex   -1.008926e+002 9.181240e+001 3.400000e+001
    endloop
  endfacet
  facet normal 0.000000e+000 -0.000000e+000 -1.000000e+000
    outer loop
      vertex   -1.120000e+002 9.181240e+001 1.400000e+001
      vertex   -1.099500e+002 9.181240e+001 1.400000e+001
      vertex   -1.120000e+002 8.500000e+001 1.400000e+001
    endloop
  endfacet
  facet normal 0.000000e+000 0.000000e+000 -1.000000e+000
    outer loop
      vertex   -1.120000e+002 8.500000e+001 1.400000e+001
      vertex   -1.099500e+002 9.181240e+001 1.400000e+001
      vertex   -1.099500e+002 8.500000e+001 1.400000e+001
    endloop
  endfacet
  facet normal 0.000000e+000 0.000000e+000 -1.000000e+000
    outer loop
      vertex   -1.120000e+002 6.500000e+001 1.400000e+001
      vertex   -1.099500e+002 8.500000e+001 1.400000e+001
      vertex   -1.099500e+002 6.500000e+001 1.400000e+001
    endloop
  endfacet
  facet normal 0.000000e+000 0.000000e+000 -1.000000e+000
    outer loop
      vertex   -1.120000e+002 5.500000e+001 1.400000e+001
      vertex   -1.099500e+002 6.500000e+001 1.400000e+001
      vertex   -1.099500e+002 5.500000e+001 1.400000e+001
    endloop
  endfacet
  facet normal 0.000000e+000 0.000000e+000 -1.000000e+000
    outer loop
      vertex   -1.208926e+002 5.281240e+001 1.400000e+001
      vertex   -1.099500e+002 5.500000e+001 1.400000e+001
      vertex   -1.008926e+002 5.281240e+001 1.400000e+001
    endloop
  endfacet
  facet normal 0.000000e+000 0.000000e+000 -1.000000e+000
    outer loop
      vertex   -1.208926e+002 5.281240e+001 1.400000e+001
      vertex   -1.120000e+002 5.500000e+001 1.400000e+001
      vertex   -1.099500e+002 5.500000e+001 1.400000e+001
    endloop
  endfacet
  facet normal 0.000000e+000 0.000000e+000 -1.000000e+000
    outer loop
      vertex   -1.208926e+002 5.281240e+001 1.400000e+001
      vertex   -1.200000e+002 5.500000e+001 1.400000e+001
      vertex   -1.120000e+002 5.500000e+001 1.400000e+001
    endloop
  endfacet
  facet normal 0.000000e+000 0.000000e+000 -1.000000e+000
    outer loop
      vertex   -1.208926e+002 5.281240e+001 1.400000e+001
      vertex   -1.200000e+002 6.500000e+001 1.400000e+001
      vertex   -1.200000e+002 5.500000e+001 1.400000e+001
    endloop
  endfacet
  facet normal 0.000000e+000 0.000000e+000 -1.000000e+000
    outer loop
      vertex   -1.208926e+002 5.281240e+001 1.400000e+001
      vertex   -1.208926e+002 9.181240e+001 1.400000e+001
      vertex   -1.200000e+002 6.500000e+001 1.400000e+001
    endloop
  endfacet
  facet normal 0.000000e+000 0.000000e+000 -1.000000e+000
    outer loop
      vertex   -1.200000e+002 6.500000e+001 1.400000e+001
      vertex   -1.208926e+002 9.181240e+001 1.400000e+001
      vertex   -1.200000e+002 8.500000e+001 1.400000e+001
    endloop
  endfacet
  facet normal -0.000000e+000 0.000000e+000 -1.000000e+000
    outer loop
      vertex   -1.120000e+002 8.500000e+001 1.400000e+001
      vertex   -1.200000e+002 6.500000e+001 1.400000e+001
      vertex   -1.200000e+002 8.500000e+001 1.400000e+001
    endloop
  endfacet
  facet normal -0.000000e+000 -0.000000e+000 -1.000000e+000
    outer loop
      vertex   -1.120000e+002 8.500000e+001 1.400000e+001
      vertex   -1.120000e+002 6.500000e+001 1.400000e+001
      vertex   -1.200000e+002 6.500000e+001 1.400000e+001
    endloop
  endfacet
  facet normal 0.000000e+000 -0.000000e+000 -1.000000e+000
    outer loop
      vertex   -1.120000e+002 8.500000e+001 1.400000e+001
      vertex   -1.099500e+002 8.500000e+001 1.400000e+001
      vertex   -1.120000e+002 6.500000e+001 1.400000e+001
    endloop
  endfacet
  facet normal 0.000000e+000 -0.000000e+000 -1.000000e+000
    outer loop
      vertex   -1.099500e+002 8.500000e+001 1.400000e+001
      vertex   -1.019500e+002 8.500000e+001 1.400000e+001
      vertex   -1.099500e+002 6.500000e+001 1.400000e+001
    endloop
  endfacet
  facet normal 0.000000e+000 0.000000e+000 -1.000000e+000
    outer loop
      vertex   -1.099500e+002 6.500000e+001 1.400000e+001
      vertex   -1.019500e+002 8.500000e+001 1.400000e+001
      vertex   -1.019500e+002 6.500000e+001 1.400000e+001
    endloop
  endfacet
  facet normal 0.000000e+000 0.000000e+000 -1.000000e+000
    outer loop
      vertex   -1.019500e+002 6.500000e+001 1.400000e+001
      vertex   -1.019500e+002 8.500000e+001 1.400000e+001
      vertex   -1.008926e+002 9.181240e+001 1.400000e+001
    endloop
  endfacet
  facet normal 0.000000e+000 0.000000e+000 -1.000000e+000
    outer loop
      vertex   -1.008926e+002 5.281240e+001 1.400000e+001
      vertex   -1.019500e+002 6.500000e+001 1.400000e+001
      vertex   -1.008926e+002 9.181240e+001 1.400000e+001
    endloop
  endfacet
  facet normal 0.000000e+000 0.000000e+000 -1.000000e+000
    outer loop
      vertex   -1.008926e+002 5.281240e+001 1.400000e+001
      vertex   -1.019500e+002 5.500000e+001 1.400000e+001
      vertex   -1.019500e+002 6.500000e+001 1.400000e+001
    endloop
  endfacet
  facet normal 0.000000e+000 0.000000e+000 -1.000000e+000
    outer loop
      vertex   -1.008926e+002 5.281240e+001 1.400000e+001
      vertex   -1.099500e+002 5.500000e+001 1.400000e+001
      vertex   -1.019500e+002 5.500000e+001 1.400000e+001
    endloop
  endfacet
  facet normal 0.000000e+000 0.000000e+000 -1.000000e+000
    outer loop
      vertex   -1.019500e+002 8.500000e+001 1.400000e+001
      vertex   -1.019500e+002 9.181240e+001 1.400000e+001
      vertex   -1.008926e+002 9.181240e+001 1.400000e+001
    endloop
  endfacet
  facet normal 0.000000e+000 0.000000e+000 -1.000000e+000
    outer loop
      vertex   -1.208926e+002 9.181240e+001 1.400000e+001
      vertex   -1.200000e+002 9.181240e+001 1.400000e+001
      vertex   -1.200000e+002 8.500000e+001 1.400000e+001
    endloop
  endfacet
  facet normal 0.000000e+000 -0.000000e+000 -1.000000e+000
    outer loop
      vertex   -1.120000e+002 6.500000e+001 1.400000e+001
      vertex   -1.099500e+002 6.500000e+001 1.400000e+001
      vertex   -1.120000e+002 5.500000e+001 1.400000e+001
    endloop
  endfacet
  facet normal 1.000000e+000 0.000000e+000 -0.000000e+000
    outer loop
      vertex   -1.008926e+002 5.281240e+001 1.400000e+001
      vertex   -1.008926e+002 9.181240e+001 1.400000e+001
      vertex   -1.008926e+002 5.281240e+001 2.050000e+001
    endloop
  endfacet
  facet normal 1.000000e+000 -0.000000e+000 -0.000000e+000
    outer loop
      vertex   -1.008926e+002 5.281240e+001 2.050000e+001
      vertex   -1.008926e+002 9.181240e+001 1.400000e+001
      vertex   -1.008926e+002 6.181240e+001 3.400000e+001
    endloop
  endfacet
  facet normal 1.000000e+000 0.000000e+000 -0.000000e+000
    outer loop
      vertex   -1.008926e+002 4.381240e+001 2.833070e+001
      vertex   -1.008926e+002 6.181240e+001 3.400000e+001
      vertex   -1.008926e+002 4.381240e+001 3.233070e+001
    endloop
  endfacet
  facet normal 1.000000e+000 -0.000000e+000 0.000000e+000
    outer loop
      vertex   -1.008926e+002 4.381240e+001 2.833070e+001
      vertex   -1.008926e+002 5.281240e+001 2.050000e+001
      vertex   -1.008926e+002 6.181240e+001 3.400000e+001
    endloop
  endfacet
  facet normal 1.000000e+000 -0.000000e+000 0.000000e+000
    outer loop
      vertex   -1.008926e+002 4.381240e+001 2.833070e+001
      vertex   -1.008926e+002 4.181240e+001 2.050000e+001
      vertex   -1.008926e+002 5.281240e+001 2.050000e+001
    endloop
  endfacet
  facet normal 1.000000e+000 0.000000e+000 0.000000e+000
    outer loop
      vertex   -1.008926e+002 4.381240e+001 2.833070e+001
      vertex   -1.008926e+002 4.181240e+001 2.833070e+001
      vertex   -1.008926e+002 4.181240e+001 2.050000e+001
    endloop
  endfacet
  facet normal 1.000000e+000 0.000000e+000 -0.000000e+000
    outer loop
      vertex   -1.008926e+002 9.181240e+001 1.400000e+001
      vertex   -1.008926e+002 9.181240e+001 3.400000e+001
      vertex   -1.008926e+002 6.181240e+001 3.400000e+001
    endloop
  endfacet
  facet normal 1.000000e+000 0.000000e+000 0.000000e+000
    outer loop
      vertex   -1.008926e+002 6.181240e+001 3.750000e+001
      vertex   -1.008926e+002 4.181240e+001 3.750000e+001
      vertex   -1.008926e+002 6.181240e+001 3.400000e+001
    endloop
  endfacet
  facet normal 1.000000e+000 0.000000e+000 0.000000e+000
    outer loop
      vertex   -1.008926e+002 6.181240e+001 3.400000e+001
      vertex   -1.008926e+002 4.181240e+001 3.750000e+001
      vertex   -1.008926e+002 4.381240e+001 3.233070e+001
    endloop
  endfacet
  facet normal 1.000000e+000 0.000000e+000 0.000000e+000
    outer loop
      vertex   -1.008926e+002 4.381240e+001 3.233070e+001
      vertex   -1.008926e+002 4.181240e+001 3.750000e+001
      vertex   -1.008926e+002 4.181240e+001 3.233070e+001
    endloop
  endfacet
  facet normal -0.000000e+000 1.000000e+000 0.000000e+000
    outer loop
      vertex   -1.208926e+002 6.181240e+001 3.400000e+001
      vertex   -1.208926e+002 6.181240e+001 3.750000e+001
      vertex   -1.008926e+002 6.181240e+001 3.400000e+001
    endloop
  endfacet
  facet normal 0.000000e+000 1.000000e+000 -0.000000e+000
    outer loop
      vertex   -1.008926e+002 6.181240e+001 3.400000e+001
      vertex   -1.208926e+002 6.181240e+001 3.750000e+001
      vertex   -1.008926e+002 6.181240e+001 3.750000e+001
    endloop
  endfacet
  facet normal -4.791942e-013 1.000000e+000 -2.805603e-006
    outer loop
      vertex   -1.158413e+002 4.181240e+001 2.852257e+001
      vertex   -1.158413e+002 4.181240e+001 2.833070e+001
      vertex   -1.158858e+002 4.181240e+001 2.852257e+001
    endloop
  endfacet
  facet normal 1.210128e-005 1.000000e+000 0.000000e+000
    outer loop
      vertex   -1.158858e+002 4.181240e+001 2.852257e+001
      vertex   -1.158413e+002 4.181240e+001 2.833070e+001
      vertex   -1.158858e+002 4.181240e+001 2.833070e+001
    endloop
  endfacet
  facet normal 0.000000e+000 0.000000e+000 1.000000e+000
    outer loop
      vertex   -1.058858e+002 4.181240e+001 2.852257e+001
      vertex   -1.158413e+002 4.181240e+001 2.852257e+001
      vertex   -1.058858e+002 3.881240e+001 2.852257e+001
    endloop
  endfacet
  facet normal 0.000000e+000 0.000000e+000 1.000000e+000
    outer loop
      vertex   -1.058858e+002 3.881240e+001 2.852257e+001
      vertex   -1.158413e+002 4.181240e+001 2.852257e+001
      vertex   -1.158858e+002 3.881240e+001 2.852257e+001
    endloop
  endfacet
  facet normal 0.000000e+000 -0.000000e+000 1.000000e+000
    outer loop
      vertex   -1.158858e+002 3.881240e+001 2.852257e+001
      vertex   -1.158413e+002 4.181240e+001 2.852257e+001
      vertex   -1.158858e+002 4.181240e+001 2.852257e+001
    endloop
  endfacet
  facet normal 0.000000e+000 0.000000e+000 -1.000000e+000
    outer loop
      vertex   -1.058858e+002 3.881240e+001 2.052257e+001
      vertex   -1.158858e+002 3.881240e+001 2.052257e+001
      vertex   -1.058858e+002 4.181240e+001 2.052257e+001
    endloop
  endfacet
  facet normal -0.000000e+000 0.000000e+000 -1.000000e+000
    outer loop
      vertex   -1.058858e+002 4.181240e+001 2.052257e+001
      vertex   -1.158858e+002 3.881240e+001 2.052257e+001
      vertex   -1.158858e+002 4.181240e+001 2.052257e+001
    endloop
  endfacet
  facet normal 0.000000e+000 -1.000000e+000 0.000000e+000
    outer loop
      vertex   -1.158858e+002 3.881240e+001 2.852257e+001
      vertex   -1.158858e+002 3.881240e+001 2.052257e+001
      vertex   -1.058858e+002 3.881240e+001 2.852257e+001
    endloop
  endfacet
  facet normal 0.000000e+000 -1.000000e+000 -0.000000e+000
    outer loop
      vertex   -1.058858e+002 3.881240e+001 2.852257e+001
      vertex   -1.158858e+002 3.881240e+001 2.052257e+001
      vertex   -1.058858e+002 3.881240e+001 2.052257e+001
    endloop
  endfacet
  facet normal -1.000000e+000 -0.000000e+000 -0.000000e+000
    outer loop
      vertex   -1.158858e+002 4.181240e+001 2.852257e+001
      vertex   -1.158858e+002 4.181240e+001 2.833070e+001
      vertex   -1.158858e+002 3.881240e+001 2.852257e+001
    endloop
  endfacet
  facet normal -1.000000e+000 0.000000e+000 -0.000000e+000
    outer loop
      vertex   -1.158858e+002 3.881240e+001 2.852257e+001
      vertex   -1.158858e+002 4.181240e+001 2.833070e+001
      vertex   -1.158858e+002 3.881240e+001 2.052257e+001
    endloop
  endfacet
  facet normal -1.000000e+000 0.000000e+000 0.000000e+000
    outer loop
      vertex   -1.158858e+002 3.881240e+001 2.052257e+001
      vertex   -1.158858e+002 4.181240e+001 2.833070e+001
      vertex   -1.158858e+002 4.181240e+001 2.052257e+001
    endloop
  endfacet
  facet normal 1.000000e+000 -0.000000e+000 0.000000e+000
    outer loop
      vertex   -1.058858e+002 3.881240e+001 2.852257e+001
      vertex   -1.058858e+002 3.881240e+001 2.052257e+001
      vertex   -1.058858e+002 4.181240e+001 2.852257e+001
    endloop
  endfacet
  facet normal 1.000000e+000 -0.000000e+000 0.000000e+000
    outer loop
      vertex   -1.058858e+002 4.181240e+001 2.852257e+001
      vertex   -1.058858e+002 3.881240e+001 2.052257e+001
      vertex   -1.058858e+002 4.181240e+001 2.052257e+001
    endloop
  endfacet
  facet normal -2.141153e-015 -1.000000e+000 -1.413577e-007
    outer loop
      vertex   -1.158413e+002 4.181240e+001 2.852257e+001
      vertex   -1.058858e+002 4.181240e+001 2.852257e+001
      vertex   -1.158413e+002 4.181240e+001 3.233070e+001
    endloop
  endfacet
  facet normal 0.000000e+000 -1.000000e+000 -1.413576e-007
    outer loop
      vertex   -1.158413e+002 4.181240e+001 3.233070e+001
      vertex   -1.058858e+002 4.181240e+001 2.852257e+001
      vertex   -1.058413e+002 4.181240e+001 3.233070e+001
    endloop
  endfacet
  facet normal 1.087783e-007 -1.000000e+000 0.000000e+000
    outer loop
      vertex   -1.008926e+002 4.181240e+001 3.750000e+001
      vertex   -1.058413e+002 4.181240e+001 3.233070e+001
      vertex   -1.008926e+002 4.181240e+001 3.233070e+001
    endloop
  endfacet
  facet normal 0.000000e+000 -1.000000e+000 1.041357e-007
    outer loop
      vertex   -1.008926e+002 4.181240e+001 3.750000e+001
      vertex   -1.158413e+002 4.181240e+001 3.233070e+001
      vertex   -1.058413e+002 4.181240e+001 3.233070e+001
    endloop
  endfacet
  facet normal 0.000000e+000 -1.000000e+000 1.041357e-007
    outer loop
      vertex   -1.008926e+002 4.181240e+001 3.750000e+001
      vertex   -1.208926e+002 4.181240e+001 3.750000e+001
      vertex   -1.158413e+002 4.181240e+001 3.233070e+001
    endloop
  endfacet
  facet normal -1.065677e-007 -1.000000e+000 -0.000000e+000
    outer loop
      vertex   -1.158413e+002 4.181240e+001 3.233070e+001
      vertex   -1.208926e+002 4.181240e+001 3.750000e+001
      vertex   -1.208926e+002 4.181240e+001 3.233070e+001
    endloop
  endfacet
  facet normal -1.210128e-005 -1.000000e+000 0.000000e+000
    outer loop
      vertex   -1.058413e+002 4.181240e+001 3.233070e+001
      vertex   -1.058858e+002 4.181240e+001 2.852257e+001
      vertex   -1.058413e+002 4.181240e+001 2.833070e+001
    endloop
  endfacet
  facet normal -1.210128e-005 -1.000000e+000 -0.000000e+000
    outer loop
      vertex   -1.058413e+002 4.181240e+001 2.833070e+001
      vertex   -1.058858e+002 4.181240e+001 2.852257e+001
      vertex   -1.058858e+002 4.181240e+001 2.052257e+001
    endloop
  endfacet
  facet normal -0.000000e+000 -1.000000e+000 -9.443334e-013
    outer loop
      vertex   -1.008926e+002 4.181240e+001 2.050000e+001
      vertex   -1.058858e+002 4.181240e+001 2.052257e+001
      vertex   -1.158858e+002 4.181240e+001 2.052257e+001
    endloop
  endfacet
  facet normal -4.257429e-015 -1.000000e+000 0.000000e+000
    outer loop
      vertex   -1.208926e+002 4.181240e+001 2.050000e+001
      vertex   -1.158858e+002 4.181240e+001 2.052257e+001
      vertex   -1.208926e+002 4.181240e+001 2.833070e+001
    endloop
  endfacet
  facet normal 0.000000e+000 -1.000000e+000 -9.443334e-013
    outer loop
      vertex   -1.208926e+002 4.181240e+001 2.050000e+001
      vertex   -1.008926e+002 4.181240e+001 2.050000e+001
      vertex   -1.158858e+002 4.181240e+001 2.052257e+001
    endloop
  endfacet
  facet normal -3.116577e-010 -1.000000e+000 -6.894026e-008
    outer loop
      vertex   -1.058413e+002 4.181240e+001 2.833070e+001
      vertex   -1.058858e+002 4.181240e+001 2.052257e+001
      vertex   -1.008926e+002 4.181240e+001 2.050000e+001
    endloop
  endfacet
  facet normal 1.087783e-007 -1.000000e+000 0.000000e+000
    outer loop
      vertex   -1.008926e+002 4.181240e+001 2.833070e+001
      vertex   -1.058413e+002 4.181240e+001 2.833070e+001
      vertex   -1.008926e+002 4.181240e+001 2.050000e+001
    endloop
  endfacet
  facet normal -4.257429e-015 -1.000000e+000 0.000000e+000
    outer loop
      vertex   -1.158858e+002 4.181240e+001 2.052257e+001
      vertex   -1.158858e+002 4.181240e+001 2.833070e+001
      vertex   -1.208926e+002 4.181240e+001 2.833070e+001
    endloop
  endfacet
  facet normal 0.000000e+000 -0.000000e+000 1.000000e+000
    outer loop
      vertex   -1.158413e+002 4.181240e+001 2.833070e+001
      vertex   -1.158413e+002 4.381240e+001 2.833070e+001
      vertex   -1.158858e+002 4.181240e+001 2.833070e+001
    endloop
  endfacet
  facet normal 3.516614e-015 -7.821584e-017 1.000000e+000
    outer loop
      vertex   -1.158858e+002 4.181240e+001 2.833070e+001
      vertex   -1.158413e+002 4.381240e+001 2.833070e+001
      vertex   -1.208926e+002 4.381240e+001 2.833070e+001
    endloop
  endfacet
  facet normal 3.547858e-015 0.000000e+000 1.000000e+000
    outer loop
      vertex   -1.208926e+002 4.181240e+001 2.833070e+001
      vertex   -1.158858e+002 4.181240e+001 2.833070e+001
      vertex   -1.208926e+002 4.381240e+001 2.833070e+001
    endloop
  endfacet
  facet normal -1.000000e+000 0.000000e+000 0.000000e+000
    outer loop
      vertex   -1.208926e+002 4.181240e+001 2.050000e+001
      vertex   -1.208926e+002 4.381240e+001 2.833070e+001
      vertex   -1.208926e+002 5.281240e+001 2.050000e+001
    endloop
  endfacet
  facet normal -1.000000e+000 0.000000e+000 0.000000e+000
    outer loop
      vertex   -1.208926e+002 4.181240e+001 2.050000e+001
      vertex   -1.208926e+002 4.181240e+001 2.833070e+001
      vertex   -1.208926e+002 4.381240e+001 2.833070e+001
    endloop
  endfacet
  facet normal -1.000000e+000 0.000000e+000 0.000000e+000
    outer loop
      vertex   -1.208926e+002 5.281240e+001 2.050000e+001
      vertex   -1.208926e+002 4.381240e+001 2.833070e+001
      vertex   -1.208926e+002 6.181240e+001 3.400000e+001
    endloop
  endfacet
  facet normal -1.000000e+000 0.000000e+000 0.000000e+000
    outer loop
      vertex   -1.208926e+002 9.181240e+001 1.400000e+001
      vertex   -1.208926e+002 6.181240e+001 3.400000e+001
      vertex   -1.208926e+002 9.181240e+001 3.400000e+001
    endloop
  endfacet
  facet normal -1.000000e+000 0.000000e+000 0.000000e+000
    outer loop
      vertex   -1.208926e+002 9.181240e+001 1.400000e+001
      vertex   -1.208926e+002 5.281240e+001 2.050000e+001
      vertex   -1.208926e+002 6.181240e+001 3.400000e+001
    endloop
  endfacet
  facet normal -1.000000e+000 0.000000e+000 0.000000e+000
    outer loop
      vertex   -1.208926e+002 9.181240e+001 1.400000e+001
      vertex   -1.208926e+002 5.281240e+001 1.400000e+001
      vertex   -1.208926e+002 5.281240e+001 2.050000e+001
    endloop
  endfacet
  facet normal -1.000000e+000 0.000000e+000 0.000000e+000
    outer loop
      vertex   -1.208926e+002 4.181240e+001 3.233070e+001
      vertex   -1.208926e+002 4.181240e+001 3.750000e+001
      vertex   -1.208926e+002 4.381240e+001 3.233070e+001
    endloop
  endfacet
  facet normal -1.000000e+000 0.000000e+000 0.000000e+000
    outer loop
      vertex   -1.208926e+002 4.381240e+001 3.233070e+001
      vertex   -1.208926e+002 4.181240e+001 3.750000e+001
      vertex   -1.208926e+002 6.181240e+001 3.400000e+001
    endloop
  endfacet
  facet normal -1.000000e+000 0.000000e+000 0.000000e+000
    outer loop
      vertex   -1.208926e+002 4.381240e+001 2.833070e+001
      vertex   -1.208926e+002 4.381240e+001 3.233070e+001
      vertex   -1.208926e+002 6.181240e+001 3.400000e+001
    endloop
  endfacet
  facet normal -1.000000e+000 0.000000e+000 0.000000e+000
    outer loop
      vertex   -1.208926e+002 4.181240e+001 3.750000e+001
      vertex   -1.208926e+002 6.181240e+001 3.750000e+001
      vertex   -1.208926e+002 6.181240e+001 3.400000e+001
    endloop
  endfacet
  facet normal 0.000000e+000 0.000000e+000 1.000000e+000
    outer loop
      vertex   -1.008926e+002 4.381240e+001 2.833070e+001
      vertex   -1.058413e+002 4.381240e+001 2.833070e+001
      vertex   -1.008926e+002 4.181240e+001 2.833070e+001
    endloop
  endfacet
  facet normal 0.000000e+000 0.000000e+000 1.000000e+000
    outer loop
      vertex   -1.008926e+002 4.181240e+001 2.833070e+001
      vertex   -1.058413e+002 4.381240e+001 2.833070e+001
      vertex   -1.058413e+002 4.181240e+001 2.833070e+001
    endloop
  endfacet
  facet normal -0.000000e+000 -0.000000e+000 -1.000000e+000
    outer loop
      vertex   -1.008926e+002 4.381240e+001 3.233070e+001
      vertex   -1.008926e+002 4.181240e+001 3.233070e+001
      vertex   -1.058413e+002 4.381240e+001 3.233070e+001
    endloop
  endfacet
  facet normal 0.000000e+000 -0.000000e+000 -1.000000e+000
    outer loop
      vertex   -1.058413e+002 4.381240e+001 3.233070e+001
      vertex   -1.008926e+002 4.181240e+001 3.233070e+001
      vertex   -1.058413e+002 4.181240e+001 3.233070e+001
    endloop
  endfacet
  facet normal 1.000000e+000 -0.000000e+000 0.000000e+000
    outer loop
      vertex   -1.058413e+002 4.181240e+001 3.233070e+001
      vertex   -1.058413e+002 4.181240e+001 2.833070e+001
      vertex   -1.058413e+002 4.381240e+001 3.233070e+001
    endloop
  endfacet
  facet normal 1.000000e+000 -0.000000e+000 0.000000e+000
    outer loop
      vertex   -1.058413e+002 4.381240e+001 3.233070e+001
      vertex   -1.058413e+002 4.181240e+001 2.833070e+001
      vertex   -1.058413e+002 4.381240e+001 2.833070e+001
    endloop
  endfacet
  facet normal -0.000000e+000 -1.000000e+000 -0.000000e+000
    outer loop
      vertex   -1.008926e+002 4.381240e+001 3.233070e+001
      vertex   -1.058413e+002 4.381240e+001 3.233070e+001
      vertex   -1.008926e+002 4.381240e+001 2.833070e+001
    endloop
  endfacet
  facet normal -0.000000e+000 -1.000000e+000 -0.000000e+000
    outer loop
      vertex   -1.008926e+002 4.381240e+001 2.833070e+001
      vertex   -1.058413e+002 4.381240e+001 3.233070e+001
      vertex   -1.058413e+002 4.381240e+001 2.833070e+001
    endloop
  endfacet
  facet normal -1.000000e+000 0.000000e+000 -0.000000e+000
    outer loop
      vertex   -1.158413e+002 4.181240e+001 3.233070e+001
      vertex   -1.158413e+002 4.381240e+001 3.233070e+001
      vertex   -1.158413e+002 4.181240e+001 2.852257e+001
    endloop
  endfacet
  facet normal -1.000000e+000 0.000000e+000 0.000000e+000
    outer loop
      vertex   -1.158413e+002 4.181240e+001 2.852257e+001
      vertex   -1.158413e+002 4.381240e+001 3.233070e+001
      vertex   -1.158413e+002 4.381240e+001 2.833070e+001
    endloop
  endfacet
  facet normal -1.000000e+000 0.000000e+000 0.000000e+000
    outer loop
      vertex   -1.158413e+002 4.181240e+001 2.833070e+001
      vertex   -1.158413e+002 4.181240e+001 2.852257e+001
      vertex   -1.158413e+002 4.381240e+001 2.833070e+001
    endloop
  endfacet
  facet normal 0.000000e+000 -0.000000e+000 -1.000000e+000
    outer loop
      vertex   -1.208926e+002 4.381240e+001 3.233070e+001
      vertex   -1.158413e+002 4.381240e+001 3.233070e+001
      vertex   -1.208926e+002 4.181240e+001 3.233070e+001
    endloop
  endfacet
  facet normal 0.000000e+000 0.000000e+000 -1.000000e+000
    outer loop
      vertex   -1.208926e+002 4.181240e+001 3.233070e+001
      vertex   -1.158413e+002 4.381240e+001 3.233070e+001
      vertex   -1.158413e+002 4.181240e+001 3.233070e+001
    endloop
  endfacet
  facet normal 0.000000e+000 -1.000000e+000 0.000000e+000
    outer loop
      vertex   -1.208926e+002 4.381240e+001 2.833070e+001
      vertex   -1.158413e+002 4.381240e+001 2.833070e+001
      vertex   -1.208926e+002 4.381240e+001 3.233070e+001
    endloop
  endfacet
  facet normal 0.000000e+000 -1.000000e+000 0.000000e+000
    outer loop
      vertex   -1.208926e+002 4.381240e+001 3.233070e+001
      vertex   -1.158413e+002 4.381240e+001 2.833070e+001
      vertex   -1.158413e+002 4.381240e+001 3.233070e+001
    endloop
  endfacet
  facet normal 0.000000e+000 0.000000e+000 1.000000e+000
    outer loop
      vertex   -1.008926e+002 6.181240e+001 3.750000e+001
      vertex   -1.208926e+002 6.181240e+001 3.750000e+001
      vertex   -1.008926e+002 4.181240e+001 3.750000e+001
    endloop
  endfacet
  facet normal 0.000000e+000 0.000000e+000 1.000000e+000
    outer loop
      vertex   -1.008926e+002 4.181240e+001 3.750000e+001
      vertex   -1.208926e+002 6.181240e+001 3.750000e+001
      vertex   -1.208926e+002 4.181240e+001 3.750000e+001
    endloop
  endfacet
  facet normal 0.000000e+000 -0.000000e+000 -1.000000e+000
    outer loop
      vertex   -1.208926e+002 5.281240e+001 2.050000e+001
      vertex   -1.008926e+002 5.281240e+001 2.050000e+001
      vertex   -1.208926e+002 4.181240e+001 2.050000e+001
    endloop
  endfacet
  facet normal 0.000000e+000 0.000000e+000 -1.000000e+000
    outer loop
      vertex   -1.208926e+002 4.181240e+001 2.050000e+001
      vertex   -1.008926e+002 5.281240e+001 2.050000e+001
      vertex   -1.008926e+002 4.181240e+001 2.050000e+001
    endloop
  endfacet
endsolid
